<svg width="172" height="30" viewBox="0 0 172 30" fill="none" xmlns="http://www.w3.org/2000/svg">
<path fill-rule="evenodd" clip-rule="evenodd" d="M50.3977 9.11854C50.2074 9.17669 50 9.39207 50 9.53151C50 9.59081 50.0895 9.71346 50.1989 9.80406C50.3826 9.95627 50.5302 9.96878 52.1377 9.96878H53.8777V14.3176C53.8777 17.5902 53.9072 18.6909 53.997 18.7653C54.186 18.9219 54.6524 18.8854 54.769 18.7049C54.8361 18.6008 54.8719 17.0558 54.8719 14.2572V9.96878H56.6119C58.2194 9.96878 58.367 9.95627 58.5507 9.80406C58.7861 9.6091 58.7998 9.48061 58.6085 9.26382C58.4734 9.11071 58.3012 9.1033 54.5071 9.08847C52.329 9.07999 50.4797 9.0935 50.3977 9.11854ZM102.376 12.038C101.832 12.0946 101.499 12.2316 101.035 12.5894L100.761 12.8V12.597C100.761 12.14 100.261 11.8776 99.9233 12.1573C99.7867 12.2705 99.7671 12.6866 99.7671 15.4766C99.7671 17.8478 99.7977 18.6919 99.8864 18.7653C100.075 18.9219 100.542 18.8854 100.658 18.7049C100.722 18.6066 100.761 17.7133 100.761 16.3736V14.2017L101.022 13.7682C101.352 13.2201 101.841 12.9389 102.565 12.8819C103.551 12.804 104.305 13.3001 104.532 14.1765C104.592 14.4079 104.639 15.4849 104.639 16.6279C104.639 18.1036 104.672 18.6937 104.758 18.7653C104.916 18.8958 105.382 18.8918 105.516 18.7587C105.583 18.6918 105.633 17.8288 105.652 16.3907C105.686 13.9048 105.716 13.7709 106.342 13.2811C107.111 12.68 108.432 12.751 109.011 13.4245C109.453 13.9388 109.511 14.3024 109.511 16.5546C109.511 18.8121 109.522 18.8642 110.008 18.8642C110.497 18.8642 110.505 18.8228 110.505 16.3927C110.505 14.2814 110.49 14.0814 110.291 13.593C110.047 12.9944 109.491 12.4363 108.883 12.1792C108.594 12.0571 108.299 12.0151 107.735 12.0159C106.787 12.017 106.359 12.1598 105.721 12.6886L105.233 13.0928L104.817 12.7188C104.133 12.1043 103.483 11.923 102.376 12.038ZM62.9292 12.1285C62.0943 12.3739 61.2464 13.0108 60.8157 13.7164C60.3162 14.5347 60.2944 14.7234 60.2944 18.2256C60.2944 20.3326 60.3313 21.5678 60.3973 21.67C60.5428 21.8952 61.0347 21.8812 61.2333 21.6462C61.3625 21.4936 61.3881 21.152 61.3881 19.589V17.7148L61.7966 18.0819C62.0213 18.2837 62.4576 18.5517 62.766 18.6772C63.2594 18.8779 63.4407 18.9053 64.2715 18.9053C65.0794 18.9053 65.2952 18.8745 65.7631 18.6928C67.326 18.0854 68.2477 16.4871 67.956 14.8901C67.7418 13.7171 66.9464 12.7779 65.7468 12.2813C65.1856 12.049 65.0552 12.0285 64.181 12.0344C63.6567 12.0379 63.0933 12.0804 62.9292 12.1285ZM73.0569 12.2229C71.5905 12.7992 70.7129 14.0212 70.7129 15.4872C70.7129 16.6043 71.1492 17.4694 72.0923 18.2218C72.7345 18.7342 73.3165 18.9053 74.4131 18.9044C75.5533 18.9033 76.14 18.7206 76.805 18.1593C77.0434 17.9581 77.2739 17.7934 77.3172 17.7934C77.3605 17.7934 77.3959 17.9899 77.3959 18.23C77.3959 18.47 77.4496 18.711 77.5152 18.7653C77.669 18.8927 78.1171 18.8927 78.2709 18.7653C78.4618 18.6072 78.4339 15.0853 78.2369 14.4544C77.9408 13.5068 77.1377 12.6737 76.1195 12.2583C75.742 12.1043 75.462 12.0647 74.612 12.0456C73.6775 12.0246 73.5144 12.0432 73.0569 12.2229ZM83.498 12.1277C83.0629 12.2438 82.2866 12.7469 81.9078 13.1584C81.4054 13.7041 81.1564 14.3472 81.0997 15.2455C81.0192 16.5204 81.457 17.4752 82.4628 18.2178C83.6805 19.1169 85.596 19.1916 87.0155 18.3956C87.4439 18.1552 87.5375 18.06 87.5375 17.864C87.5375 17.6916 87.4709 17.6 87.2982 17.5348C87.0921 17.457 86.9738 17.4878 86.4489 17.7563C85.9119 18.0309 85.7463 18.0725 85.064 18.1053C84.4396 18.1352 84.2025 18.1109 83.845 17.9798C82.9406 17.6484 82.2587 16.9311 82.1085 16.153L82.0436 15.8167H84.9207C87.1756 15.8167 87.8374 15.7927 87.9808 15.7057C88.1418 15.6083 88.1576 15.51 88.1112 14.8939C88.0209 13.6951 87.2914 12.7223 86.1204 12.2388C85.6782 12.0563 85.488 12.0291 84.7092 12.0363C84.2141 12.0409 83.669 12.0821 83.498 12.1277ZM91.0728 12.211C90.9394 12.3687 90.918 12.8193 90.918 15.4698C90.918 17.4325 90.9553 18.6031 91.0209 18.7049C91.0844 18.803 91.2275 18.8637 91.3938 18.8629C91.9448 18.8603 91.9594 18.8225 91.9934 17.3024L92.0249 15.899H93.2647L94.7432 17.3816C95.9751 18.6168 96.2653 18.8642 96.4831 18.8642C96.8035 18.8642 96.9831 18.7266 96.9831 18.4813C96.9831 18.3633 96.4603 17.778 95.5454 16.8715C94.3127 15.6503 94.1248 15.4275 94.228 15.3093C94.2941 15.2335 94.8674 14.6403 95.5018 13.9909C96.9986 12.459 96.9623 12.5102 96.7461 12.2369C96.4358 11.8445 96.2381 11.9703 94.7144 13.5311L93.287 14.993H92.0252L91.9935 13.6272C91.9649 12.3873 91.9442 12.2506 91.769 12.1446C91.4924 11.9773 91.2509 12.0004 91.0728 12.211ZM115.825 12.2179C114.274 12.8335 113.416 14.1203 113.512 15.6844C113.632 17.6466 115.151 18.9465 117.324 18.9465C118.84 18.9465 120.019 18.3283 120.709 17.1705C121.027 16.6385 121.078 16.4674 121.12 15.7985C121.147 15.3689 121.118 14.8338 121.054 14.5764C120.819 13.6408 120.045 12.7725 119.037 12.3131C118.559 12.0955 118.405 12.0702 117.415 12.0466C116.429 12.023 116.273 12.0398 115.825 12.2179ZM126.541 12.2704C125.419 12.7101 124.562 13.6707 124.322 14.759C124.259 15.0442 124.23 16.4765 124.248 18.4479C124.278 21.9188 124.263 21.825 124.792 21.8281C125.268 21.8308 125.32 21.6108 125.32 19.589V17.7148L125.728 18.0819C125.953 18.2837 126.389 18.5517 126.698 18.6772C127.191 18.8779 127.372 18.9053 128.203 18.9053C129.019 18.9053 129.225 18.8754 129.714 18.6854C131.275 18.0793 132.201 16.4672 131.895 14.8901C131.664 13.7048 130.884 12.7802 129.701 12.2905C129.12 12.0501 128.986 12.0279 128.113 12.028C127.264 12.028 127.091 12.0547 126.541 12.2704ZM135.051 12.1639C134.874 12.3405 134.806 15.4021 134.958 16.352C135.227 18.028 136.431 18.9465 138.359 18.9465C139.208 18.9465 139.979 18.7168 140.433 18.329C140.618 18.1703 140.806 18.0405 140.85 18.0405C140.894 18.0405 140.93 18.1814 140.93 18.3535C140.93 18.7205 141.07 18.8642 141.427 18.8642C141.569 18.8642 141.739 18.8197 141.805 18.7653C141.894 18.6919 141.924 17.8494 141.924 15.4835C141.924 12.3893 141.919 12.2963 141.722 12.1492C141.563 12.0293 141.464 12.0142 141.25 12.0765L140.98 12.1552L140.93 14.4596C140.875 16.9945 140.873 17.006 140.218 17.5165C139.652 17.9577 139.27 18.0785 138.444 18.0781C137.617 18.0778 137.114 17.9145 136.641 17.4921C136.029 16.9451 136.013 16.8744 135.959 14.4715C135.912 12.405 135.896 12.2539 135.716 12.1447C135.46 11.9901 135.218 11.997 135.051 12.1639ZM147.066 12.1463C146.248 12.388 145.611 12.9129 145.402 13.5171C145.277 13.8785 145.278 14.7043 145.404 15.0807C145.53 15.4543 146.1 16.0097 146.499 16.1465C146.684 16.2099 146.786 16.2954 146.756 16.3604C146.729 16.4199 146.346 16.877 145.906 17.3762C145.45 17.8941 145.106 18.366 145.106 18.4751C145.106 18.726 145.283 18.8642 145.605 18.8642C145.823 18.8642 146.03 18.6804 146.902 17.7144L147.94 16.5645L149.978 16.558V17.6122C149.978 18.3224 150.017 18.6988 150.097 18.7653C150.286 18.9219 150.753 18.8854 150.869 18.7049C150.935 18.6031 150.972 17.4267 150.972 15.4515C150.972 12.4671 150.965 12.3515 150.773 12.1926C150.591 12.0415 150.445 12.0282 149.008 12.0315C147.956 12.0339 147.319 12.0716 147.066 12.1463ZM65.4763 13.1182C66.0792 13.4126 66.4011 13.7156 66.7246 14.2929C66.9582 14.7099 67.0018 14.8967 67.0036 15.4889C67.0056 16.1199 66.9723 16.2471 66.6743 16.7485C66.4367 17.1483 66.203 17.3979 65.8494 17.6294C63.7164 19.0261 60.8729 17.3429 61.3751 14.9808C61.5698 14.0654 62.1352 13.4028 63.0287 13.043C63.7142 12.767 64.8271 12.8012 65.4763 13.1182ZM75.6559 13.0484C76.2743 13.2913 76.819 13.7552 77.1175 14.2929C77.3051 14.631 77.346 14.8449 77.3457 15.4872C77.3454 16.1755 77.3121 16.3258 77.0693 16.7359C76.3284 17.9875 74.7631 18.4604 73.328 17.8663C72.1988 17.3989 71.6688 16.531 71.7482 15.2792C71.8419 13.7987 72.9165 12.8746 74.5622 12.8589C74.9946 12.8548 75.2956 12.9069 75.6559 13.0484ZM85.8225 13.0626C86.4084 13.3046 86.8582 13.7954 87.0923 14.4483C87.1731 14.6737 87.2392 14.8885 87.2392 14.9257C87.2392 14.9627 86.0724 14.993 84.6463 14.993H82.0532L82.1209 14.7253C82.31 13.9776 82.8829 13.3129 83.5874 13.0241C84.207 12.77 85.1531 12.7863 85.8225 13.0626ZM118.685 13.1245C119.686 13.6103 120.197 14.5058 120.128 15.6519C120.062 16.7396 119.555 17.4506 118.544 17.8688C117.102 18.4657 115.504 17.9778 114.79 16.7227C114.565 16.327 114.533 16.1654 114.536 15.446C114.54 14.7458 114.577 14.5607 114.782 14.2106C115.089 13.6876 115.754 13.149 116.298 12.9832C116.962 12.7806 118.118 12.8489 118.685 13.1245ZM129.251 13.0464C130.359 13.4738 131.079 14.603 130.953 15.7175C130.799 17.0873 129.604 18.1237 128.182 18.1224C127.462 18.1218 126.992 17.9999 126.491 17.6838C124.675 16.5402 124.95 13.8204 126.96 13.0452C127.645 12.7809 128.564 12.7813 129.251 13.0464ZM149.978 15.7504L148.643 15.7218C147.204 15.6909 147.016 15.6384 146.572 15.1463C146.163 14.6928 146.162 13.8946 146.569 13.443C146.946 13.0247 147.327 12.9339 148.709 12.9339H149.978V15.7504Z" fill="#3D7AA5"/>
<path fill-rule="evenodd" clip-rule="evenodd" d="M20 7.52214H43V7H20V7.52214ZM20 13.0414L25.7258 13.0606L25.7543 13.6014H20V18.1509L25.7258 18.1702L25.7507 23H31.161L31.1859 18.1702H31.8141L31.839 23H37.25V18.1515H43V13.6014H37.25V13.042H43V8.49184H20V13.0414ZM20 19.6425L23.9863 19.662L24.0115 23H24.5903V19.1212H20V19.6425ZM38.4097 23H38.9885L39.0137 19.662L43 19.6425V19.1212H38.4097V23Z" fill="#3D7AA5"/>
</svg>
